<?xml version="1.0"?>
<svg version="1.1" xmlns="http://www.w3.org/2000/svg" width="200" height="80" style="border: dashed 2px #aaa"><path fill="#fc5200" d="M22.7197265625,60.38671875l-5.0634765625,0l0-25.83203125l5.0634765625,0l0,25.83203125z M42.156337890625,60.38671875l-0.9794921875-2.5234375l-0.1328125,0q-1.2783203125,1.6103515625-2.63134765625,2.23291015625t-3.52783203125,0.62255859375q-2.6728515625,0-4.20849609375-1.52734375t-1.53564453125-4.349609375q0-2.955078125,2.06689453125-4.35791015625t6.23388671875-1.55224609375l3.220703125-0.099609375l0-0.8134765625q0-2.822265625-2.888671875-2.822265625q-2.224609375,0-5.2294921875,1.3447265625l-1.6767578125-3.419921875q3.2041015625-1.6767578125,7.10546875-1.6767578125q3.7353515625,0,5.7275390625,1.626953125t1.9921875,4.947265625l0,12.3681640625l-3.5361328125,0z M40.662197265625,51.787109375l-1.958984375,0.06640625q-2.2080078125,0.06640625-3.287109375,0.796875t-1.0791015625,2.224609375q0,2.1416015625,2.45703125,2.1416015625q1.759765625,0,2.81396484375-1.0126953125t1.05419921875-2.689453125l0-1.52734375z M66.19158203125,54.875q0,2.85546875-1.98388671875,4.349609375t-5.93505859375,1.494140625q-2.025390625,0-3.453125-0.27392578125t-2.6728515625-0.80517578125l0-4.18359375q1.4111328125,0.6640625,3.17919921875,1.1123046875t3.11279296875,0.4482421875q2.755859375,0,2.755859375-1.59375q0-0.59765625-0.365234375-0.97119140625t-1.26171875-0.8466796875t-2.390625-1.10400390625q-2.1416015625-0.896484375-3.14599609375-1.66015625t-1.4609375-1.75146484375t-0.45654296875-2.43212890625q0-2.4736328125,1.91748046875-3.82666015625t5.43701171875-1.35302734375q3.353515625,0,6.5244140625,1.4609375l-1.52734375,3.65234375q-1.39453125-0.59765625-2.6064453125-0.9794921875t-2.4736328125-0.3818359375q-2.2412109375,0-2.2412109375,1.2119140625q0,0.6806640625,0.72216796875,1.1787109375t3.16259765625,1.4775390625q2.1748046875,0.8798828125,3.1875,1.6435546875t1.494140625,1.759765625t0.4814453125,2.3740234375z M80.299091796875,56.6845703125q1.328125,0,3.1875-0.5810546875l0,3.7685546875q-1.892578125,0.8466796875-4.6484375,0.8466796875q-3.0380859375,0-4.42431640625-1.53564453125t-1.38623046875-4.60693359375l0-8.9482421875l-2.423828125,0l0-2.1416015625l2.7890625-1.693359375l1.4609375-3.91796875l3.2373046875,0l0,3.951171875l5.1962890625,0l0,3.8017578125l-5.1962890625,0l0,8.9482421875q0,1.0791015625,0.60595703125,1.59375t1.60205078125,0.5146484375z M104.3011328125,53.646484375q0,3.287109375-2.36572265625,5.1796875t-6.58251953125,1.892578125q-3.884765625,0-6.873046875-1.4609375l0-4.78125q2.45703125,1.095703125,4.15869140625,1.5439453125t3.11279296875,0.4482421875q1.693359375,0,2.59814453125-0.6474609375t0.90478515625-1.92578125q0-0.7138671875-0.3984375-1.27001953125t-1.17041015625-1.07080078125t-3.14599609375-1.6435546875q-2.224609375-1.0458984375-3.3369140625-2.0087890625t-1.7763671875-2.2412109375t-0.6640625-2.98828125q0-3.220703125,2.18310546875-5.0634765625t6.03466796875-1.8427734375q1.892578125,0,3.61083984375,0.4482421875t3.59423828125,1.26171875l-1.66015625,4.0009765625q-1.9423828125-0.796875-3.21240234375-1.1123046875t-2.49853515625-0.3154296875q-1.4609375,0-2.2412109375,0.6806640625t-0.7802734375,1.7763671875q0,0.6806640625,0.3154296875,1.18701171875t1.00439453125,0.9794921875t3.26220703125,1.70166015625q3.4033203125,1.626953125,4.6650390625,3.26220703125t1.26171875,4.00927734375z M118.32563476562,45.080078125q-1.6103515625,0-2.5234375,1.02099609375t-1.0458984375,2.89697265625l7.10546875,0q-0.033203125-1.8759765625-0.9794921875-2.89697265625t-2.556640625-1.02099609375z M119.03950195312,60.71875q-4.482421875,0-7.005859375-2.4736328125t-2.5234375-7.005859375q0-4.6650390625,2.33251953125-7.21337890625t6.44970703125-2.54833984375q3.9345703125,0,6.1259765625,2.2412109375t2.19140625,6.1923828125l0,2.45703125l-11.9697265625,0q0.0830078125,2.158203125,1.2783203125,3.3701171875t3.353515625,1.2119140625q1.6767578125,0,3.1708984375-0.3486328125t3.12109375-1.1123046875l0,3.91796875q-1.328125,0.6640625-2.8388671875,0.98779296875t-3.685546875,0.32373046875z M140.75052734375,45.080078125q-1.6103515625,0-2.5234375,1.02099609375t-1.0458984375,2.89697265625l7.10546875,0q-0.033203125-1.8759765625-0.9794921875-2.89697265625t-2.556640625-1.02099609375z M141.46439453125,60.71875q-4.482421875,0-7.005859375-2.4736328125t-2.5234375-7.005859375q0-4.6650390625,2.33251953125-7.21337890625t6.44970703125-2.54833984375q3.9345703125,0,6.1259765625,2.2412109375t2.19140625,6.1923828125l0,2.45703125l-11.9697265625,0q0.0830078125,2.158203125,1.2783203125,3.3701171875t3.353515625,1.2119140625q1.6767578125,0,3.1708984375-0.3486328125t3.12109375-1.1123046875l0,3.91796875q-1.328125,0.6640625-2.8388671875,0.98779296875t-3.685546875,0.32373046875z M172.62170898438,60.38671875l-5.0634765625,0l0-10.8408203125q0-2.0087890625-0.7138671875-3.01318359375t-2.2744140625-1.00439453125q-2.125,0-3.0712890625,1.41943359375t-0.9462890625,4.70654296875l0,8.732421875l-5.0634765625,0l0-18.560546875l3.8681640625,0l0.6806640625,2.3740234375l0.2822265625,0q0.8466796875-1.3447265625,2.33251953125-2.03369140625t3.37841796875-0.68896484375q3.2373046875,0,4.9140625,1.75146484375t1.6767578125,5.05517578125l0,12.1025390625z"/><path fill="#fc5200" d=""/></svg>
